<?xml version="1.0" encoding="utf-8"?>
<!DOCTYPE svg PUBLIC "-//W3C//DTD SVG 1.0//EN" "http://www.w3.org/TR/2001/REC-SVG-20010904/DTD/svg10.dtd">
<svg version="1.0" xmlns="http://www.w3.org/2000/svg" width="1024px" height="1024px" viewBox="0 0 1024 1024" preserveAspectRatio="xMidYMid meet">
 <g fill="#f7f7f7">
  <path d="M0 512 l0 -512 512 0 512 0 0 512 0 512 -512 0 -512 0 0 -512z m658.70 285 c4.05 -2.45 6.60 -5.20 7.85 -8.50 1.25 -3.25 1.10 -5.30 -0.70 -9.10 -1.60 -3.40 -4.20 -6.05 -7.60 -7.65 l-2.70 -1.25 -23.95 0 -23.95 0 -1.05 -4.85 c-0.60 -2.70 -1.55 -7.35 -2.10 -10.40 -0.55 -3 -1.25 -6.40 -1.50 -7.50 -0.30 -1.10 -1.95 -9.20 -3.75 -18 -1.75 -8.80 -3.55 -17.55 -4 -19.50 -0.40 -1.90 -0.75 -4.35 -0.75 -5.35 l0 -1.90 88.40 0 c52.85 -0.05 89.65 -0.20 91.60 -0.50 13.80 -2 23.30 -6.75 33.05 -16.45 5.85 -5.85 9.20 -10.85 11.85 -17.65 4.10 -10.55 3.75 10.60 3.65 -207.40 -0.10 -171.10 -0.20 -194.70 -0.85 -198 -1.05 -5.15 -2 -8.30 -2.90 -9.60 -0.45 -0.60 -0.80 -1.50 -0.80 -1.95 0 -0.45 -0.75 -1.95 -1.65 -3.25 -0.90 -1.35 -1.95 -3.10 -2.35 -3.85 -1.35 -2.70 -8.55 -9.85 -12.70 -12.55 -4.30 -2.90 -9.70 -5.65 -12.45 -6.30 -6.10 -1.60 -8.15 -2 -12.50 -2.45 -5.90 -0.65 -482.90 -0.70 -515.60 -0.05 -19.80 0.40 -20.65 0.45 -25 1.70 -5.55 1.55 -13.45 5.40 -17.75 8.70 -7.90 6 -15.15 17.05 -17.05 26.10 -2 9.50 -1.95 2.05 -1.95 201.10 0 127.55 0.15 191.10 0.50 193.75 1.90 14.10 6.80 24.10 16.60 33.45 4.65 4.40 8.05 6.85 12.90 9.10 5.85 2.75 7.20 3.25 11.75 4.55 l4.50 1.30 92.65 0.10 92.60 0.15 0 1.25 c0 0.70 -0.55 3.70 -1.30 6.65 -0.70 2.95 -1.45 6.35 -1.70 7.60 -0.85 3.85 -2.50 12.10 -3.05 15 -0.30 1.50 -0.75 3.65 -0.95 4.75 -1.60 7.15 -5 23.50 -5.30 25.50 -0.15 0.85 -0.50 2.65 -0.75 4.10 l-0.50 2.60 -25.60 0.15 -25.60 0.15 -2.35 1.35 c-3.80 2.25 -5.30 3.80 -6.95 7.20 -2.70 5.45 -2 9.55 2.40 14.25 2.25 2.40 4.90 4.15 7.65 5 0.70 0.20 65.95 0.35 145 0.30 l143.80 -0.10 2.90 -1.75z"/>
  <path d="M448 769.15 c0 -0.70 0.55 -3.80 1.25 -6.85 0.70 -3.05 1.75 -7.55 2.25 -10.05 0.55 -2.45 1.45 -6.65 2.05 -9.25 0.55 -2.60 1.20 -5.65 1.45 -6.75 1.65 -7.30 3.20 -14.35 3.55 -16.25 0.20 -1.25 0.85 -4.40 1.45 -7 0.55 -2.60 1.15 -5.40 1.30 -6.25 0.15 -0.80 0.35 -2 0.50 -2.60 l0.20 -1.15 50.70 0 50.65 0 0.30 1.90 c0.15 1 0.95 5.10 1.85 9.10 0.85 4 2 9.40 2.55 12 0.50 2.60 1.40 6.80 1.95 9.25 0.60 2.50 1.25 5.75 1.55 7.25 0.90 4.55 1.30 6.60 1.95 9.50 0.60 2.85 0.75 3.40 2.45 10.50 0.55 2.35 1.05 5.10 1.05 6.15 l0 1.85 -64.50 0 -64.50 0 0 -1.35z"/>
  <path d="M240.45 670.30 c-1.55 -0.60 -3.50 -1.60 -4.35 -2.20 -2.05 -1.50 -4.75 -5.25 -6.20 -8.60 -1.10 -2.65 -1.15 -3.35 -1.30 -19.35 l-0.15 -16.65 280.40 0 c154.20 0 281.60 -0.15 283.05 -0.30 l2.60 -0.35 0 16.10 c0 17.60 -0.20 19.30 -2.75 23.30 -2.50 3.95 -6.15 6.75 -11.25 8.60 -1.40 0.50 -53.75 0.65 -269.50 0.65 l-267.75 0 -2.80 -1.20z"/>
  <path d="M228.70 594.05 c-0.10 -0.10 -0.20 -73.45 -0.20 -163 0 -176.55 -0.15 -165.35 2.70 -170.25 1.70 -2.90 4.30 -5.15 8.30 -7 l3.25 -1.55 268.75 0 c257.65 0 268.85 0.05 271.20 0.90 4.75 1.75 9.35 6.25 10.95 10.70 0.80 2.25 0.85 13.05 0.85 166.40 l0 164 -282.80 0 c-155.55 0 -282.90 -0.10 -283 -0.20z m260.95 -63.75 c2.65 -1.15 6.35 -4 6.35 -4.90 0 -0.25 0.55 -1.30 1.25 -2.30 0.70 -1 1.25 -2.30 1.25 -2.85 0 -0.60 0.20 -1.25 0.40 -1.50 0.25 -0.30 0.95 -1.95 1.55 -3.75 0.60 -1.80 1.30 -3.70 1.55 -4.25 0.40 -0.90 1.10 -2.80 3.80 -10.50 0.45 -1.35 1.15 -3.15 1.50 -4 2.10 -5.10 3.20 -8 3.20 -8.50 0 -0.30 0.45 -1.50 1 -2.65 0.55 -1.10 1 -2.35 1 -2.75 0 -0.35 0.45 -1.60 1 -2.75 0.55 -1.10 1 -2.35 1 -2.75 0 -0.35 0.40 -1.55 0.95 -2.65 0.50 -1.05 1.65 -4.10 2.55 -6.70 0.85 -2.60 1.95 -5.65 2.45 -6.75 0.50 -1.10 1.20 -2.90 1.55 -4 0.30 -1.10 1 -2.95 1.55 -4.10 0.50 -1.20 0.95 -2.50 0.95 -2.90 0 -0.45 0.45 -1.65 1 -2.75 0.55 -1.10 1 -2.35 1 -2.90 0 -0.50 0.20 -1.10 0.40 -1.40 0.25 -0.25 1.15 -2.30 2 -4.55 3.60 -9.35 4.60 -12.05 5.75 -15.40 1.30 -3.65 5.20 -14.20 6.90 -18.45 0.50 -1.35 0.95 -2.80 0.95 -3.25 0 -0.50 0.20 -1.05 0.40 -1.35 0.25 -0.25 0.95 -1.80 1.55 -3.45 0.65 -1.65 1.35 -3.45 1.55 -4 0.40 -0.95 1.30 -3.45 3.45 -9.35 0.55 -1.45 1.80 -4.80 2.80 -7.40 1.05 -2.60 2.25 -6 2.75 -7.50 0.50 -1.50 2.30 -6.35 4 -10.75 4.05 -10.45 4.65 -12.50 4.20 -14.40 -1.55 -7.30 -9.50 -12.15 -17.70 -10.80 -6 0.95 -9.70 3.75 -11.75 8.85 -1.80 4.45 -2 4.90 -3.15 8.10 -0.55 1.50 -2.20 5.90 -3.60 9.75 -1.45 3.85 -3.30 8.90 -4.10 11.25 -0.85 2.35 -1.95 5.20 -2.45 6.35 -0.55 1.20 -0.95 2.35 -0.95 2.60 0 0.25 -0.35 1.10 -0.75 1.85 -0.40 0.80 -0.75 1.85 -0.75 2.40 0 0.50 -0.55 2 -1.25 3.40 -0.70 1.35 -1.25 2.75 -1.25 3.10 0 0.35 -0.40 1.50 -0.95 2.60 -0.50 1.05 -1.30 3.10 -1.80 4.45 -0.45 1.40 -1.10 3.20 -1.50 4 -0.35 0.85 -0.85 2.20 -1.15 3 -1.50 4.25 -4.75 13.15 -5.10 14 -0.25 0.55 -0.90 2.40 -1.50 4.10 -0.55 1.70 -1.90 5.25 -2.95 7.85 -1.10 2.60 -2.10 5.60 -2.30 6.75 -0.20 1.10 -0.65 2.25 -1.05 2.60 -0.40 0.30 -0.70 0.90 -0.70 1.25 0 0.40 -0.20 1.10 -0.45 1.60 -0.95 1.80 -2.55 6.25 -2.55 7.15 0 0.50 -0.20 1 -0.45 1.15 -0.20 0.15 -0.70 1.35 -1.05 2.65 -0.35 1.35 -0.85 2.60 -1.05 2.90 -0.25 0.25 -0.45 0.90 -0.45 1.45 0 0.50 -0.65 2.40 -1.50 4.15 -0.80 1.70 -1.50 3.30 -1.50 3.55 0 0.20 -0.70 2.15 -1.55 4.35 -0.85 2.20 -2 5.25 -2.55 6.75 -0.55 1.50 -1.20 3.20 -1.40 3.75 -0.25 0.55 -1.15 3.05 -1.95 5.55 -0.85 2.50 -2.20 6.20 -3.05 8.20 -0.80 2 -1.50 3.90 -1.50 4.25 0 0.30 -0.35 1.30 -0.75 2.10 -0.40 0.85 -1.45 3.40 -2.30 5.70 -4.80 13 -5 14.15 -2.65 18.45 2.55 4.70 7.50 7.45 13.55 7.45 2.75 0.05 4.25 -0.25 6.30 -1.15z m-71.25 -25.90 c3.60 -1.70 9.80 -7.90 11.65 -11.70 1.65 -3.35 1.65 -4.80 0.10 -7.90 -0.40 -0.80 -5.95 -6.50 -12.30 -12.70 -6.40 -6.25 -17.60 -17.30 -24.95 -24.55 -12.45 -12.35 -13.40 -13.40 -13.40 -15.05 0 -1.60 1.55 -3.25 24.90 -26.75 26.85 -26.95 27.65 -27.90 26.90 -31.90 -0.80 -4.20 -8.85 -13.65 -12.60 -14.75 -2.95 -0.85 -3.90 -0.75 -7.10 0.70 -2.50 1.15 -7.05 5.50 -35.15 33.65 -21.15 21.15 -32.80 33.15 -33.70 34.75 -1.85 3.15 -1.85 5.90 -0.10 8.85 0.70 1.20 15.75 16.60 33.45 34.25 33.20 33.10 34.35 34.10 38.30 34.20 0.90 0 2.70 -0.50 4 -1.10z m194.85 -0.45 c2.85 -1.50 68 -66.45 69.05 -68.80 0.85 -1.95 0.85 -2.75 0.15 -5.40 -0.45 -1.70 -5.25 -6.70 -33.85 -35.45 -26.60 -26.65 -33.85 -33.65 -35.85 -34.60 -2.90 -1.40 -3.95 -1.45 -5.95 -0.45 -0.75 0.40 -1.70 0.75 -2 0.75 -1.05 0 -9.65 9.15 -10.50 11.20 -1.20 2.90 -1 5.45 0.60 8.10 0.80 1.25 4.35 5.25 7.90 8.85 43.25 44.05 41.20 41.90 41.20 44.10 0 2.05 -0.15 2.20 -24 26 -13.25 13.20 -24.55 24.80 -25.15 25.75 -2.20 3.45 -2.40 4.85 -1.25 7.95 2.65 7.25 10.25 13.85 15.25 13.40 1.15 -0.15 3.15 -0.75 4.40 -1.40z"/>
 </g>
 <g fill="#22a386">
  <path d="M365.50 800.05 c-4.20 -1.30 -9.25 -5.70 -10.85 -9.45 -0.45 -1.10 -0.80 -3.40 -0.85 -5.60 -0.05 -3.30 0.15 -4.20 1.60 -7.10 1.70 -3.50 3.20 -5 7 -7.30 l2.35 -1.35 25.60 -0.15 25.60 -0.15 0.50 -2.60 c0.25 -1.45 0.60 -3.25 0.75 -4.10 0.30 -2 3.70 -18.35 5.30 -25.50 0.20 -1.10 0.65 -3.25 0.95 -4.75 0.55 -2.75 2.05 -10.25 3.15 -15.50 0.30 -1.50 1.05 -4.75 1.65 -7.25 l1.05 -4.50 -92.50 -0.25 -92.55 -0.25 -4.50 -1.30 c-4.55 -1.30 -5.90 -1.80 -11.75 -4.55 -4.85 -2.25 -8.25 -4.70 -12.90 -9.10 -9.80 -9.35 -14.70 -19.35 -16.60 -33.45 -0.35 -2.65 -0.50 -66.70 -0.50 -195.25 0 -200.60 -0.05 -193.10 1.95 -202.60 1.90 -9.05 9.15 -20.10 17.05 -26.10 4.30 -3.30 12.20 -7.15 17.75 -8.70 4.35 -1.25 5.20 -1.30 24.75 -1.70 32.20 -0.65 513 -0.60 518.85 0.05 4.35 0.45 6.40 0.85 12.50 2.45 2.75 0.65 8.15 3.40 12.45 6.30 4.15 2.70 11.35 9.85 12.70 12.55 0.40 0.75 1.45 2.50 2.35 3.85 0.90 1.30 1.65 2.80 1.65 3.25 0 0.45 0.35 1.35 0.80 1.95 0.90 1.30 1.85 4.45 2.90 9.60 0.65 3.30 0.75 26.70 0.90 199.50 0.10 186 0.05 195.95 -0.80 199.75 -1.30 5.85 -4.55 13.75 -7.45 18.15 -1.40 2.10 -4.70 6 -7.30 8.65 -9.75 9.70 -19.25 14.45 -33.05 16.45 -1.95 0.30 -38.75 0.45 -91.60 0.50 -48.65 0 -88.40 0.15 -88.40 0.40 0 0.20 0.35 1.95 0.75 3.85 0.45 1.95 2.25 10.70 4 19.50 1.80 8.80 3.45 16.90 3.75 18 0.25 1.10 0.95 4.50 1.50 7.50 0.55 3.05 1.50 7.70 2.10 10.40 l1.05 4.85 23.95 0 23.95 0 2.70 1.25 c5.35 2.55 8.80 7.75 9.15 13.75 0.35 6.10 -2.40 10.65 -8.70 14.50 l-2.90 1.75 -145.30 0.10 c-79.90 0.05 -145.80 -0.10 -146.50 -0.30z m210 -31.40 c0 -0.25 -0.50 -2.30 -1.05 -4.65 -1.70 -7.10 -1.85 -7.65 -2.45 -10.50 -0.65 -2.90 -1.05 -4.95 -1.95 -9.50 -0.30 -1.50 -0.95 -4.75 -1.55 -7.25 -0.55 -2.45 -1.45 -6.65 -1.95 -9.25 -0.55 -2.60 -1.70 -8 -2.55 -12 -0.90 -4 -1.70 -8.10 -1.85 -9.10 l-0.30 -1.90 -49.15 0 -49.20 0 -0.20 1.15 c-0.15 0.60 -0.35 1.80 -0.50 2.60 -0.15 0.85 -0.75 3.65 -1.30 6.25 -0.60 2.60 -1.25 5.75 -1.45 7 -0.35 1.90 -1.90 8.95 -3.55 16.25 -0.25 1.10 -0.90 4.15 -1.45 6.75 -0.60 2.60 -1.50 6.80 -2.05 9.25 -0.55 2.50 -1.40 6.55 -1.95 9 -0.55 2.50 -1.15 4.90 -1.30 5.40 -0.35 0.80 2.85 0.85 62.70 0.85 34.70 0 63.05 -0.15 63.05 -0.35z m203.50 -99.30 c5.10 -1.85 8.75 -4.65 11.25 -8.60 2.50 -3.95 2.75 -5.80 2.75 -21.60 l0 -14.40 -281.55 0.15 -281.50 0.10 0.15 15.15 c0.15 14.45 0.20 15.20 1.30 17.85 1.45 3.35 4.15 7.10 6.20 8.60 0.85 0.60 2.80 1.60 4.35 2.20 l2.80 1.20 266.25 0 c214.55 0 266.60 -0.15 268 -0.65z m14 -239.10 c0 -151.95 -0.05 -162.65 -0.85 -164.90 -1.60 -4.45 -6.20 -8.95 -10.95 -10.70 -2.35 -0.85 -13.50 -0.90 -269.70 -0.90 l-267.25 0 -3.25 1.55 c-4 1.85 -6.60 4.10 -8.30 7 -2.85 4.90 -2.70 -6.15 -2.70 168.75 0 88.70 0.10 161.40 0.20 161.50 0.10 0.10 126.80 0.20 281.50 0.20 l281.30 0 0 -162.50z"/>
  <path d="M476.15 532.10 c-3.55 -1.40 -6.30 -3.70 -7.90 -6.65 -1.30 -2.35 -1.50 -3.15 -1.45 -6.45 0.05 -2.65 0.45 -4.75 1.30 -7.25 2.95 -8.05 4.45 -11.95 5.15 -13.40 0.40 -0.80 0.75 -1.80 0.75 -2.10 0 -0.35 0.70 -2.25 1.50 -4.25 0.85 -2 2.20 -5.70 3.05 -8.20 0.80 -2.50 1.70 -5 1.95 -5.55 0.20 -0.55 0.85 -2.25 1.40 -3.75 0.55 -1.50 1.70 -4.55 2.55 -6.75 0.85 -2.20 1.55 -4.15 1.55 -4.35 0 -0.25 0.70 -1.85 1.50 -3.55 0.85 -1.75 1.50 -3.65 1.50 -4.15 0 -0.55 0.20 -1.20 0.45 -1.45 0.20 -0.30 0.70 -1.55 1.05 -2.90 0.35 -1.30 0.85 -2.50 1.05 -2.65 0.25 -0.15 0.45 -0.65 0.45 -1.15 0 -0.90 1.60 -5.35 2.55 -7.15 0.25 -0.50 0.45 -1.20 0.45 -1.60 0 -0.35 0.30 -0.95 0.70 -1.25 0.40 -0.35 0.85 -1.50 1.05 -2.60 0.20 -1.15 1.20 -4.15 2.30 -6.75 1.05 -2.60 2.40 -6.15 2.95 -7.85 0.60 -1.70 1.25 -3.55 1.50 -4.10 0.35 -0.85 3.60 -9.75 5.10 -14 0.30 -0.80 0.80 -2.15 1.15 -3 0.40 -0.80 1.05 -2.60 1.50 -4 0.50 -1.35 1.30 -3.40 1.80 -4.45 0.55 -1.10 0.95 -2.25 0.95 -2.60 0 -0.35 0.55 -1.75 1.25 -3.10 0.70 -1.40 1.25 -2.90 1.25 -3.40 0 -0.55 0.35 -1.60 0.75 -2.40 0.40 -0.75 0.75 -1.60 0.75 -1.85 0 -0.25 0.40 -1.40 0.95 -2.60 0.50 -1.15 1.60 -4 2.45 -6.35 0.80 -2.35 2.65 -7.40 4.10 -11.25 1.40 -3.85 3.05 -8.25 3.60 -9.75 1.15 -3.20 1.35 -3.65 3.15 -8.10 2.10 -5.30 5.80 -7.95 12.30 -8.95 10.75 -1.65 19.50 3.70 20.30 12.40 0.30 3.40 -0.10 4.90 -4.35 15.90 -1.70 4.40 -3.50 9.25 -4 10.75 -0.50 1.50 -1.70 4.90 -2.75 7.50 -1 2.60 -2.25 5.95 -2.80 7.40 -2.15 5.90 -3.05 8.40 -3.45 9.35 -0.20 0.55 -0.90 2.35 -1.55 4 -0.60 1.65 -1.30 3.20 -1.55 3.45 -0.20 0.30 -0.40 0.85 -0.40 1.35 0 0.45 -0.45 1.90 -0.95 3.25 -1.70 4.25 -5.60 14.80 -6.90 18.45 -1.15 3.35 -2.15 6.05 -5.75 15.40 -0.85 2.25 -1.75 4.30 -2 4.55 -0.20 0.30 -0.40 0.90 -0.40 1.40 0 0.55 -0.45 1.80 -1 2.90 -0.55 1.10 -1 2.30 -1 2.75 0 0.40 -0.45 1.70 -0.95 2.90 -0.55 1.15 -1.25 3 -1.55 4.10 -0.35 1.10 -1.05 2.90 -1.55 4 -0.50 1.10 -1.60 4.15 -2.45 6.75 -0.90 2.60 -2.05 5.65 -2.55 6.70 -0.55 1.10 -0.95 2.30 -0.95 2.65 0 0.40 -0.45 1.65 -1 2.75 -0.55 1.15 -1 2.40 -1 2.75 0 0.40 -0.45 1.65 -1 2.75 -0.55 1.15 -1 2.35 -1 2.65 0 0.50 -1.10 3.40 -3.20 8.50 -0.35 0.85 -1.05 2.65 -1.50 4 -2.70 7.70 -3.40 9.60 -3.80 10.50 -0.25 0.55 -0.95 2.45 -1.55 4.25 -0.60 1.80 -1.30 3.45 -1.55 3.75 -0.20 0.25 -0.40 0.90 -0.40 1.50 0 0.55 -0.55 1.85 -1.25 2.85 -0.70 1 -1.25 2.05 -1.25 2.30 0 0.90 -3.70 3.75 -6.35 4.90 -2.25 1 -3.45 1.20 -7.80 1.15 -3.55 0 -5.75 -0.25 -7.20 -0.85z"/>
  <path d="M409 505.90 c-1.65 -0.80 -10.50 -9.25 -34.40 -33.10 -18.25 -18.15 -32.75 -33.05 -33.50 -34.30 -1.10 -1.85 -1.35 -2.85 -1.35 -5.75 0 -2.95 0.25 -3.90 1.45 -6 0.95 -1.65 12.15 -13.25 33.75 -34.80 35.50 -35.50 34.85 -34.95 40.70 -34.95 5.20 0 7.80 1.55 12.45 7.45 3.80 4.70 4.85 7.05 4.90 10.45 0 5.15 -0.40 5.65 -27.40 32.70 l-24.85 24.90 3.75 3.80 c2.05 2.10 13.20 13.05 24.75 24.30 11.55 11.30 21.55 21.40 22.15 22.45 0.75 1.20 1.30 3.05 1.45 4.95 0.25 2.65 0.10 3.35 -1.30 6.20 -1.85 3.80 -8.05 10 -11.65 11.70 -3.15 1.45 -7.75 1.45 -10.90 0z"/>
  <path d="M602.75 505.75 c-4.55 -2.40 -8.80 -7.35 -10.70 -12.40 -1.55 -4.25 -1.25 -6.80 1.30 -10.85 0.60 -0.95 11.90 -12.55 25.15 -25.75 13.20 -13.15 24 -24.20 24 -24.50 0 -0.50 -9.50 -10.30 -41.20 -42.60 -3.55 -3.60 -7.05 -7.55 -7.80 -8.75 -1.90 -3.05 -2.30 -6.25 -1.20 -9.80 0.75 -2.40 1.65 -3.60 5.65 -7.70 2.60 -2.70 5 -4.90 5.30 -4.90 0.35 0 1.30 -0.35 2.05 -0.75 2.20 -1.15 6.05 -0.95 8.95 0.45 2 0.95 9.25 7.95 35.85 34.60 36.10 36.25 34.40 34.25 34.40 39.85 0 1.30 -0.30 3.10 -0.70 4 -1.05 2.45 -66.20 67.30 -69.20 68.85 -3.55 1.85 -8.50 1.95 -11.85 0.25z"/>
 </g>
</svg>