<svg class="img-fluid" xmlns="http://www.w3.org/2000/svg" style="transform:matrix(.390001,0,0,.390001,0,0);transform-origin:50% 50%;cursor:move;max-height:none;transition:transform 200ms ease-in-out" width="1024" height="1024" viewBox="1987 2218.75 6248 5778.947" version="1.1" xmlns:xlink="http://www.w3.org/1999/xlink" transform="matrix(-1.8369701987210297e-16,-1,1,-1.8369701987210297e-16,0,0)">
  <g style="transform:none" fill="#22A387">
    <path d="M3632 7987c-12-7-19-17-15-22 4-4 2-5-5-1-19 12-43-13-37-38 5-16 4-18-4-6-15 21-26-12-26-77 0-56 18-90 69-127 26-20 45-21 289-26l261-5 51-248c28-137 53-246 56-242 4 3 5-5 3-17-3-13 3-45 11-73 12-39 14-42 11-15-4 32-4 33 6 12 8-17 9-29 1-40-9-16-88-17-959-22-522-3-951-7-954-8s2-7 10-13c12-8 11-9-6-4-27 7-106-23-97-38 3-6 1-7-5-3-14 8-75-22-67-33 2-5-3-15-13-22-15-13-16-12-3 4 7 9 9 17 4 17-13 0-44-35-37-42 3-3-1-5-8-4-16 1-91-81-114-125-8-16-12-35-8-41s3-8-4-4c-10 6-20-16-43-104-8-34-11-539-12-2005 0-1078 3-1976 7-1995 12-58 17-71 26-65 4 3 6-4 3-14-17-66 199-296 249-265 6 4 8 3 5-3-13-21 104-52 196-53 31 0 57 4 57 10s8 10 18 10c14 0 15-2 2-10-10-6 97-10 312-10 252 0 327 3 331 13q6 15 6 0c1-19 2387-19 2394 0q6 15 6 0c1-9 23-13 77-13 47 0 73 4 69 10-3 6-1 10 4 10 6 0 11-4 11-10 0-5 12-10 28-10 21 0 24 2 12 10-9 6-10 10-3 10 6 0 15-5 18-10 8-14 875-13 875 0 0 6 8 10 18 10 14 0 15-2 2-10-10-6 151-10 463-10 311 0 477 3 477 10 0 6 7 10 15 10s15-5 15-11c0-8 25-10 88-6 99 6 196 32 186 49-4 7-3 8 4 4 15-9 53 11 49 26-1 6 4 13 12 16 9 3 11 0 6-8-6-9-4-11 6-5 28 16 58 48 53 57-3 5 0 7 8 6 8-2 12 5 10 17-2 14 0 16 6 7 13-19 64 42 55 65-4 11-2 14 5 9 14-8 36 30 28 50-3 8-2 12 4 9 34-21 35 40 35 2095v2015l-26 61c-32 75-107 176-123 167-6-3-8-2-3 2 4 5-3 19-15 32-22 24-45 32-32 11 4-7 3-8-5-4-6 4-9 11-6 16 16 26-199 119-245 107-11-3-18-1-14 4 3 5-366 9-912 9-779 0-915 2-905 14 15 18 64 254 58 278-3 10-2 16 3 13 4-2 10 9 14 26 8 43 8 51-4 44-5-3-10 1-10 9 0 19 17 30 22 14 2-6 15 48 28 120l24 132h235c240 0 286 4 274 23-4 6-1 7 6 2 16-9 63 34 56 53-2 7 0 10 5 7 12-7 24 40 14 56-4 8-3 9 4 5 18-11 14 23-7 70-10 23-34 52-52 65l-34 24-1465 2c-1170 2-1470 0-1488-10m426-4c-10-2-28-2-40 0-13 2-5 4 17 4 22 1 32-1 23-4m1495 0c-13-2-35-2-50 0-16 2-5 4 22 4 28 0 40-2 28-4m295 0c-10-2-26-2-35 0-10 3-2 5 17 5s27-2 18-5m285 0c-13-2-35-2-50 0-16 2-5 4 22 4 28 0 40-2 28-4m245 0c-10-2-28-2-40 0-13 2-5 4 17 4 22 1 32-1 23-4m-2560-280c-16-2-40-2-55 0-16 2-3 4 27 4s43-2 28-4m140 0c-10-2-28-2-40 0-13 2-5 4 17 4 22 1 32-1 23-4m100 0c-16-2-40-2-55 0-16 2-3 4 27 4s43-2 28-4m570 0c-16-2-40-2-55 0-16 2-3 4 27 4s43-2 28-4m450 0c-71-2-185-2-255 0-71 1-13 3 127 3s198-2 128-3m345 0c-29-2-78-2-110 0s-8 3 52 3c61 0 87-1 58-3m115 0c-10-2-28-2-40 0-13 2-5 4 17 4 22 1 32-1 23-4m95 0c-13-2-33-2-45 0-13 2-3 4 22 4s35-2 23-4m795 0c-32-2-86-2-120 0-35 2-9 3 57 3s94-1 63-3m-674-40c-3-16-8-35-11-43-4-15-82-382-104-495-6-33-13-66-15-72-3-10-111-13-499-13h-495v23c0 18-2 19-11 7s-10-12-5 4c9 27-24 187-41 193-7 3-13 9-13 15 0 5 5 6 10 3 14-8 15-15-34 208l-43 197h1267zm-2871-640c-18-2-48-2-65 0-18 2-4 4 32 4s50-2 33-4m155 0c-21-2-57-2-80 0-24 2-7 4 37 4s63-2 43-4m130 0c-15-2-42-2-60 0s-6 4 27 4 48-2 33-4m290 0c-10-2-28-2-40 0-13 2-5 4 17 4 22 1 32-1 23-4m155 0c-18-2-48-2-65 0-18 2-4 4 32 4s50-2 33-4m315 0c-32-2-84-2-115 0-32 2-6 3 57 3s89-1 58-3m200 0c-10-2-28-2-40 0-13 2-5 4 17 4 22 1 32-1 23-4m690 0c-10-2-28-2-40 0-13 2-5 4 17 4 22 1 32-1 23-4m140 0c-16-2-40-2-55 0-16 2-3 4 27 4s43-2 28-4m300 0c-32-2-86-2-120 0-35 2-9 3 57 3s94-1 63-3m240 0c-32-2-84-2-115 0-32 2-6 3 57 3s89-1 58-3m685 0c-23-2-64-2-90 0s-7 3 42 3c50 0 71-1 48-3m185 0c-10-2-26-2-35 0-10 3-2 5 17 5s27-2 18-5m210 0c-10-2-26-2-35 0-10 3-2 5 17 5s27-2 18-5m270 0c-16-2-40-2-55 0-16 2-3 4 27 4s43-2 28-4m130 0c-10-2-26-2-35 0-10 3-2 5 17 5s27-2 18-5m80 0c-10-2-28-2-40 0-13 2-5 4 17 4 22 1 32-1 23-4m320 0c-10-2-26-2-35 0-10 3-2 5 17 5s27-2 18-5m-4350-312h567c36 0 1646-1 2330-2h680c196 6 1132 0 1163-7 62-14 118-55 143-104 19-38 22-60 23-198l1-155-2800-3c-1540-1-2809 0-2820 2-19 5-20 11-15 168 5 171 12 200 59 242 11 10 18 23 14 29-3 5-2 7 4 4 5-3 29 0 53 7s40 15 35 18c-6 3-4 3 3 2 7-2 259-3 560-3m-290-768c-42-2-114-2-160 0-46 1-11 3 77 3s125-2 83-3m130 0c-10-2-26-2-35 0-10 3-2 5 17 5s27-2 18-5m240 0c-10-2-28-2-40 0-13 2-5 4 17 4 22 1 32-1 23-4m209 0c-20-2-52-2-70 0-17 2 0 4 38 4 39 0 53-2 32-4m136 0c-13-2-35-2-50 0-16 2-5 4 22 4 28 0 40-2 28-4m125 0c-15-2-42-2-60 0s-6 4 27 4 48-2 33-4m95 0c-13-2-33-2-45 0-13 2-3 4 22 4s35-2 23-4m85 0c-10-2-28-2-40 0-13 2-5 4 17 4 22 1 32-1 23-4m310 0c-54-2-142-2-195 0-54 1-10 3 97 3s151-2 98-3m290 0c-27-2-69-2-95 0-27 2-5 3 47 3s74-1 48-3m185 0c-13-2-33-2-45 0-13 2-3 4 22 4s35-2 23-4m120 0c-18-2-48-2-65 0-18 2-4 4 32 4s50-2 33-4m95 0c-10-2-28-2-40 0-13 2-5 4 17 4 22 1 32-1 23-4m175 0c-13-2-35-2-50 0-16 2-5 4 22 4 28 0 40-2 28-4m170 0c-13-2-33-2-45 0-13 2-3 4 22 4s35-2 23-4m165 0c-10-2-28-2-40 0-13 2-5 4 17 4 22 1 32-1 23-4m80 0c-10-2-26-2-35 0-10 3-2 5 17 5s27-2 18-5m270 0c-16-2-40-2-55 0-16 2-3 4 27 4s43-2 28-4m100 0c-10-2-28-2-40 0-13 2-5 4 17 4 22 1 32-1 23-4m155 0c-13-2-35-2-50 0-16 2-5 4 22 4 28 0 40-2 28-4m105 0c-16-2-40-2-55 0-16 2-3 4 27 4s43-2 28-4m90 0c-10-2-26-2-35 0-10 3-2 5 17 5s27-2 18-5m250 0c-21-2-55-2-75 0-21 2-4 4 37 4s58-2 38-4m120 0c-10-2-28-2-40 0-13 2-5 4 17 4 22 1 32-1 23-4m110 0c-10-2-28-2-40 0-13 2-5 4 17 4 22 1 32-1 23-4m185 0c-18-2-48-2-65 0-18 2-4 4 32 4s50-2 33-4m125 0c-10-2-28-2-40 0-13 2-5 4 17 4 22 1 32-1 23-4m90 0c-10-2-26-2-35 0-10 3-2 5 17 5s27-2 18-5m150 0c-15-2-42-2-60 0s-6 4 27 4 48-2 33-4m80 0c-10-2-26-2-35 0-10 3-2 5 17 5s27-2 18-5m205 0c-29-2-78-2-110 0s-8 3 52 3c61 0 87-1 58-3m115 0c-10-2-28-2-40 0-13 2-5 4 17 4 22 1 32-1 23-4m130 0c-10-2-28-2-40 0-13 2-5 4 17 4 22 1 32-1 23-4m140 0c-21-2-57-2-80 0-24 2-7 4 37 4s63-2 43-4m166-1641c-1-1822 6-1673-75-1731-23-17-50-31-59-31s-19-2-22-5c-8-8-5327-11-5321-2 2 4-4 7-13 7-34 0-104 50-124 90-19 38-20 65-22 1669l-3 1631h5640zM2848 2233c-10-2-28-2-40 0-13 2-5 4 17 4 22 1 32-1 23-4m3980 0c-10-2-26-2-35 0-10 3-2 5 17 5s27-2 18-5m655 0c-13-2-35-2-50 0-16 2-5 4 22 4 28 0 40-2 28-4m145 0c-10-2-28-2-40 0-13 2-5 4 17 4 22 1 32-1 23-4m180 0c-10-2-28-2-40 0-13 2-5 4 17 4 22 1 32-1 23-4"></path>
    <path d="M4760 5319c-28-11-70-48-70-61 0-5 5-6 12-2s8 3 4-5c-4-6-11-9-16-6-13 8-23-40-17-80 3-19 35-112 70-207 36-95 88-236 117-313 245-669 271-735 281-729 5 3 6-2 3-10s12-62 34-118c22-57 63-167 92-245 29-79 56-140 61-137s6-2 3-11c-7-18 19-51 58-71 52-27 211-13 193 16-3 5 0 7 7 5 20-8 51 53 51 99-1 24-23 98-53 176-48 127-70 173-57 122 3-13 1-20-5-16-5 4-8 18-5 32 6 32-10 79-30 86-9 4-13 13-9 22 8 22-4 65-17 57-6-3-7-1-3 5 8 14-223 644-234 637-5-3-11 2-14 11-4 10-2 13 6 8 7-5 9-2 6 7-3 8-15 42-28 76-12 35-26 60-31 57s-6 1-4 8c5 11-14 66-97 290-5 16-14 25-19 22s-6 1-3 9c7 18-60 204-82 229-10 10-24 16-31 13-8-2-12-1-9 4 16 25-113 40-164 20m-658-263c-39-13-455-423-445-439 3-6 1-7-4-4-12 8-109-89-105-104 1-6-1-8-6-5s-37-23-71-58c-50-51-63-71-67-102-6-44 23-111 45-106 7 1 10-1 7-6-6-10 307-325 317-317 4 3 5 2 2-2-10-12 67-82 84-76 11 3 12 2 4-4-17-12 225-253 253-252 18 0 18 1-1 9-16 7-17 9-3 9 9 1 23-6 32-14 8-8 21-15 28-15 10 0 9 3-2 10-12 8-12 10 3 16 9 3 26 4 37 1 21-5 44 15 32 28-4 5-2 5 5 1 13-7 56 44 73 88 6 16 8 43 4 58-7 36-62 100-77 91-5-3-7-1-4 4 7 12-16 36-26 28-4-3-5-2-2 2 8 10-37 53-48 46-6-3-7-2-4 4 8 13-47 66-57 56-4-5-6-1-4 7 2 9-3 14-12 12-8-2-12 0-7 4 10 10-63 85-76 77-6-3-7-1-4 4 7 12-16 36-26 28-4-3-5-2-2 2 7 9-26 43-42 43-8 0-12 4-9 8 7 12-49 64-58 55-4-5-6-1-4 7 2 9-3 14-12 12-8-2-12 0-8 4 11 10-12 35-25 27-5-3-7-1-3 5 3 6 1 14-5 17-7 5-1 17 16 35 15 16 27 31 26 34s1 5 3 4c10-6 75 66 69 76-3 6-3 8 2 4 11-11 36 12 28 25-3 5-1 7 4 4 13-8 65 42 57 54-3 5 1 6 8 4 8-3 29 10 48 30 19 19 28 35 21 35s-9 5-6 11c4 6 13 8 20 5 7-2 30 13 51 35 27 28 33 38 19 34-16-5-17-5-5 3 8 6 17 9 20 7 7-5 75 62 75 73 0 4 3 6 7 5 4-2 16 9 27 24 15 18 21 40 21 75 0 46-4 53-52 104-39 42-56 53-72 49-15-5-17-4-7 3 11 8 9 11-9 17-14 4-25 3-30-5-5-7-9-8-11-2-3 6-15 6-37-2m1968 6c0-6-9-8-19-5-24 6-99-60-118-104-16-39-17-87-2-116 6-12 122-133 257-269l247-248-53-53c-29-29-49-57-45-62 5-4 3-5-3-2-16 9-278-259-268-274 4-7 3-10-4-5-13 8-117-98-133-136-12-30-4-102 11-93 6 3 7 0 5-7-3-7 15-33 40-58 25-24 45-40 45-35 0 6 4 5 8-2 4-6 21-14 37-18 20-4 26-3 17 3-11 7-11 10 2 15 8 3 18 2 21-3 4-6 12-10 18-10 7 0 6 4-3 11-12 9-11 10 7 6 23-5 69 34 56 47-5 4-1 6 7 4s14 3 15 10c0 6 5 12 10 12 16 1 75 62 69 72-3 5-1 7 3 6 15-5 85 61 78 72-4 6-2 9 3 8 16-5 159 139 154 155-1 5 1 6 6 3 12-7 164 148 155 159-4 4-3 5 3 2 14-8 54 28 54 48 0 8 6 14 13 12 6-1 11 4 9 11-1 8 2 11 7 8 17-11 61 54 61 90 0 46-18 82-32 63-6-10-7-7-3 10 6 19 4 23-8 18-18-7-37 11-31 28 5 11-40 49-58 50-5 0-7 3-5 7 4 11-45 58-55 52-5-3-7 0-6 8 2 7-3 12-10 10-6-1-11 4-10 10 2 7-3 12-10 10-8-1-11 2-8 6 7 12-28 44-38 35-4-5-6-1-4 7s-3 14-10 12c-8-1-11 1-8 6 7 12-38 54-49 45-4-5-5-3-2 3 6 11-9 31-25 33-5 1-7 3-5 5 5 9-47 55-56 49-6-3-7-2-4 4 7 11-66 86-76 78-4-3-5-2-2 2 8 10-16 33-28 26-5-3-7-2-4 4 8 13-37 56-48 46-4-5-5-3-2 3 8 14-17 37-28 26-5-4-5-2-2 4 8 14-36 57-48 47-4-5-5-3-1 4 8 14-15 28-61 38-20 4-33 3-33-3"></path>
  </g>
</svg>