<svg class="img-fluid" id="outputsvg" xmlns="http://www.w3.org/2000/svg" style="transform: matrix(0.390001, 0, 0, 0.390001, 0, 0); transform-origin: 50% 50%; cursor: move; max-height: none; transition: transform 200ms ease-in-out;" width="1024" height="1024" viewBox="0 0 10240 10240"><g id="l15wjICcFaN23Xp0dHXyzkt" fill="rgb(34,163,135)" style="transform: none;"><g style="transform: none;"><path id="poddHRC2Q" d="M3632 7987 c-12 -7 -19 -17 -15 -22 4 -4 2 -5 -5 -1 -19 12 -43 -13 -37 -38 5 -16 4 -18 -4 -6 -15 21 -26 -12 -26 -77 0 -56 18 -90 69 -127 26 -20 45 -21 289 -26 l261 -5 51 -248 c28 -137 53 -246 56 -242 4 3 5 -5 3 -17 -3 -13 3 -45 11 -73 12 -39 14 -42 11 -15 -4 32 -4 33 6 12 8 -17 9 -29 1 -40 -9 -16 -88 -17 -959 -22 -522 -3 -951 -7 -954 -8 -3 -1 2 -7 10 -13 12 -8 11 -9 -6 -4 -27 7 -106 -23 -97 -38 3 -6 1 -7 -5 -3 -14 8 -75 -22 -67 -33 2 -5 -3 -15 -13 -22 -15 -13 -16 -12 -3 4 7 9 9 17 4 17 -13 0 -44 -35 -37 -42 3 -3 -1 -5 -8 -4 -16 1 -91 -81 -114 -125 -8 -16 -12 -35 -8 -41 4 -6 3 -8 -4 -4 -10 6 -20 -16 -43 -104 -8 -34 -11 -539 -12 -2005 0 -1078 3 -1976 7 -1995 12 -58 17 -71 26 -65 4 3 6 -4 3 -14 -17 -66 199 -296 249 -265 6 4 8 3 5 -3 -13 -21 104 -52 196 -53 31 0 57 4 57 10 0 6 8 10 18 10 14 0 15 -2 2 -10 -10 -6 97 -10 312 -10 252 0 327 3 331 13 4 10 6 10 6 0 1 -19 2387 -19 2394 0 4 10 6 10 6 0 1 -9 23 -13 77 -13 47 0 73 4 69 10 -3 6 -1 10 4 10 6 0 11 -4 11 -10 0 -5 12 -10 28 -10 21 0 24 2 12 10 -9 6 -10 10 -3 10 6 0 15 -5 18 -10 8 -14 875 -13 875 0 0 6 8 10 18 10 14 0 15 -2 2 -10 -10 -6 151 -10 463 -10 311 0 477 3 477 10 0 6 7 10 15 10 8 0 15 -5 15 -11 0 -8 25 -10 88 -6 99 6 196 32 186 49 -4 7 -3 8 4 4 15 -9 53 11 49 26 -1 6 4 13 12 16 9 3 11 0 6 -8 -6 -9 -4 -11 6 -5 28 16 58 48 53 57 -3 5 0 7 8 6 8 -2 12 5 10 17 -2 14 0 16 6 7 13 -19 64 42 55 65 -4 11 -2 14 5 9 14 -8 36 30 28 50 -3 8 -2 12 4 9 34 -21 35 40 35 2095 l0 2015 -26 61 c-32 75 -107 176 -123 167 -6 -3 -8 -2 -3 2 4 5 -3 19 -15 32 -22 24 -45 32 -32 11 4 -7 3 -8 -5 -4 -6 4 -9 11 -6 16 16 26 -199 119 -245 107 -11 -3 -18 -1 -14 4 3 5 -366 9 -912 9 -779 0 -915 2 -905 14 15 18 64 254 58 278 -3 10 -2 16 3 13 4 -2 10 9 14 26 8 43 8 51 -4 44 -5 -3 -10 1 -10 9 0 19 17 30 22 14 2 -6 15 48 28 120 l24 132 235 0 c240 0 286 4 274 23 -4 6 -1 7 6 2 16 -9 63 34 56 53 -2 7 0 10 5 7 12 -7 24 40 14 56 -4 8 -3 9 4 5 18 -11 14 23 -7 70 -10 23 -34 52 -52 65 l-34 24 -1465 2 c-1170 2 -1470 0 -1488 -10z m426 -4 c-10 -2 -28 -2 -40 0 -13 2 -5 4 17 4 22 1 32 -1 23 -4z m1495 0 c-13 -2 -35 -2 -50 0 -16 2 -5 4 22 4 28 0 40 -2 28 -4z m295 0 c-10 -2 -26 -2 -35 0 -10 3 -2 5 17 5 19 0 27 -2 18 -5z m285 0 c-13 -2 -35 -2 -50 0 -16 2 -5 4 22 4 28 0 40 -2 28 -4z m245 0 c-10 -2 -28 -2 -40 0 -13 2 -5 4 17 4 22 1 32 -1 23 -4z m-2560 -280 c-16 -2 -40 -2 -55 0 -16 2 -3 4 27 4 30 0 43 -2 28 -4z m140 0 c-10 -2 -28 -2 -40 0 -13 2 -5 4 17 4 22 1 32 -1 23 -4z m100 0 c-16 -2 -40 -2 -55 0 -16 2 -3 4 27 4 30 0 43 -2 28 -4z m570 0 c-16 -2 -40 -2 -55 0 -16 2 -3 4 27 4 30 0 43 -2 28 -4z m450 0 c-71 -2 -185 -2 -255 0 -71 1 -13 3 127 3 140 0 198 -2 128 -3z m345 0 c-29 -2 -78 -2 -110 0 -32 2 -8 3 52 3 61 0 87 -1 58 -3z m115 0 c-10 -2 -28 -2 -40 0 -13 2 -5 4 17 4 22 1 32 -1 23 -4z m95 0 c-13 -2 -33 -2 -45 0 -13 2 -3 4 22 4 25 0 35 -2 23 -4z m795 0 c-32 -2 -86 -2 -120 0 -35 2 -9 3 57 3 66 0 94 -1 63 -3z m-674 -40 c-3 -16 -8 -35 -11 -43 -4 -15 -82 -382 -104 -495 -6 -33 -13 -66 -15 -72 -3 -10 -111 -13 -499 -13 l-495 0 0 23 c0 18 -2 19 -11 7 -9 -12 -10 -12 -5 4 9 27 -24 187 -41 193 -7 3 -13 9 -13 15 0 5 5 6 10 3 14 -8 15 -15 -34 208 l-43 197 634 0 633 0 -6 -27z m-2871 -640 c-18 -2 -48 -2 -65 0 -18 2 -4 4 32 4 36 0 50 -2 33 -4z m155 0 c-21 -2 -57 -2 -80 0 -24 2 -7 4 37 4 44 0 63 -2 43 -4z m130 0 c-15 -2 -42 -2 -60 0 -18 2 -6 4 27 4 33 0 48 -2 33 -4z m290 0 c-10 -2 -28 -2 -40 0 -13 2 -5 4 17 4 22 1 32 -1 23 -4z m155 0 c-18 -2 -48 -2 -65 0 -18 2 -4 4 32 4 36 0 50 -2 33 -4z m315 0 c-32 -2 -84 -2 -115 0 -32 2 -6 3 57 3 63 0 89 -1 58 -3z m200 0 c-10 -2 -28 -2 -40 0 -13 2 -5 4 17 4 22 1 32 -1 23 -4z m690 0 c-10 -2 -28 -2 -40 0 -13 2 -5 4 17 4 22 1 32 -1 23 -4z m140 0 c-16 -2 -40 -2 -55 0 -16 2 -3 4 27 4 30 0 43 -2 28 -4z m300 0 c-32 -2 -86 -2 -120 0 -35 2 -9 3 57 3 66 0 94 -1 63 -3z m240 0 c-32 -2 -84 -2 -115 0 -32 2 -6 3 57 3 63 0 89 -1 58 -3z m685 0 c-23 -2 -64 -2 -90 0 -26 2 -7 3 42 3 50 0 71 -1 48 -3z m185 0 c-10 -2 -26 -2 -35 0 -10 3 -2 5 17 5 19 0 27 -2 18 -5z m210 0 c-10 -2 -26 -2 -35 0 -10 3 -2 5 17 5 19 0 27 -2 18 -5z m270 0 c-16 -2 -40 -2 -55 0 -16 2 -3 4 27 4 30 0 43 -2 28 -4z m130 0 c-10 -2 -26 -2 -35 0 -10 3 -2 5 17 5 19 0 27 -2 18 -5z m80 0 c-10 -2 -28 -2 -40 0 -13 2 -5 4 17 4 22 1 32 -1 23 -4z m320 0 c-10 -2 -26 -2 -35 0 -10 3 -2 5 17 5 19 0 27 -2 18 -5z m-4350 -312 c301 0 556 0 567 0 36 0 1646 -1 2330 -2 369 0 675 0 680 0 196 6 1132 0 1163 -7 62 -14 118 -55 143 -104 19 -38 22 -60 23 -198 l1 -155 -2800 -3 c-1540 -1 -2809 0 -2820 2 -19 5 -20 11 -15 168 5 171 12 200 59 242 11 10 18 23 14 29 -3 5 -2 7 4 4 5 -3 29 0 53 7 24 7 40 15 35 18 -6 3 -4 3 3 2 7 -2 259 -3 560 -3z m-290 -768 c-42 -2 -114 -2 -160 0 -46 1 -11 3 77 3 88 0 125 -2 83 -3z m130 0 c-10 -2 -26 -2 -35 0 -10 3 -2 5 17 5 19 0 27 -2 18 -5z m240 0 c-10 -2 -28 -2 -40 0 -13 2 -5 4 17 4 22 1 32 -1 23 -4z m209 0 c-20 -2 -52 -2 -70 0 -17 2 0 4 38 4 39 0 53 -2 32 -4z m136 0 c-13 -2 -35 -2 -50 0 -16 2 -5 4 22 4 28 0 40 -2 28 -4z m125 0 c-15 -2 -42 -2 -60 0 -18 2 -6 4 27 4 33 0 48 -2 33 -4z m95 0 c-13 -2 -33 -2 -45 0 -13 2 -3 4 22 4 25 0 35 -2 23 -4z m85 0 c-10 -2 -28 -2 -40 0 -13 2 -5 4 17 4 22 1 32 -1 23 -4z m310 0 c-54 -2 -142 -2 -195 0 -54 1 -10 3 97 3 107 0 151 -2 98 -3z m290 0 c-27 -2 -69 -2 -95 0 -27 2 -5 3 47 3 52 0 74 -1 48 -3z m185 0 c-13 -2 -33 -2 -45 0 -13 2 -3 4 22 4 25 0 35 -2 23 -4z m120 0 c-18 -2 -48 -2 -65 0 -18 2 -4 4 32 4 36 0 50 -2 33 -4z m95 0 c-10 -2 -28 -2 -40 0 -13 2 -5 4 17 4 22 1 32 -1 23 -4z m175 0 c-13 -2 -35 -2 -50 0 -16 2 -5 4 22 4 28 0 40 -2 28 -4z m170 0 c-13 -2 -33 -2 -45 0 -13 2 -3 4 22 4 25 0 35 -2 23 -4z m165 0 c-10 -2 -28 -2 -40 0 -13 2 -5 4 17 4 22 1 32 -1 23 -4z m80 0 c-10 -2 -26 -2 -35 0 -10 3 -2 5 17 5 19 0 27 -2 18 -5z m270 0 c-16 -2 -40 -2 -55 0 -16 2 -3 4 27 4 30 0 43 -2 28 -4z m100 0 c-10 -2 -28 -2 -40 0 -13 2 -5 4 17 4 22 1 32 -1 23 -4z m155 0 c-13 -2 -35 -2 -50 0 -16 2 -5 4 22 4 28 0 40 -2 28 -4z m105 0 c-16 -2 -40 -2 -55 0 -16 2 -3 4 27 4 30 0 43 -2 28 -4z m90 0 c-10 -2 -26 -2 -35 0 -10 3 -2 5 17 5 19 0 27 -2 18 -5z m250 0 c-21 -2 -55 -2 -75 0 -21 2 -4 4 37 4 41 0 58 -2 38 -4z m120 0 c-10 -2 -28 -2 -40 0 -13 2 -5 4 17 4 22 1 32 -1 23 -4z m110 0 c-10 -2 -28 -2 -40 0 -13 2 -5 4 17 4 22 1 32 -1 23 -4z m185 0 c-18 -2 -48 -2 -65 0 -18 2 -4 4 32 4 36 0 50 -2 33 -4z m125 0 c-10 -2 -28 -2 -40 0 -13 2 -5 4 17 4 22 1 32 -1 23 -4z m90 0 c-10 -2 -26 -2 -35 0 -10 3 -2 5 17 5 19 0 27 -2 18 -5z m150 0 c-15 -2 -42 -2 -60 0 -18 2 -6 4 27 4 33 0 48 -2 33 -4z m80 0 c-10 -2 -26 -2 -35 0 -10 3 -2 5 17 5 19 0 27 -2 18 -5z m205 0 c-29 -2 -78 -2 -110 0 -32 2 -8 3 52 3 61 0 87 -1 58 -3z m115 0 c-10 -2 -28 -2 -40 0 -13 2 -5 4 17 4 22 1 32 -1 23 -4z m130 0 c-10 -2 -28 -2 -40 0 -13 2 -5 4 17 4 22 1 32 -1 23 -4z m140 0 c-21 -2 -57 -2 -80 0 -24 2 -7 4 37 4 44 0 63 -2 43 -4z m166 -1641 c-1 -1822 6 -1673 -75 -1731 -23 -17 -50 -31 -59 -31 -9 0 -19 -2 -22 -5 -8 -8 -5327 -11 -5321 -2 2 4 -4 7 -13 7 -34 0 -104 50 -124 90 -19 38 -20 65 -22 1669 l-3 1631 2820 0 2820 0 -1 -1628z m-5086 -2069 c-10 -2 -28 -2 -40 0 -13 2 -5 4 17 4 22 1 32 -1 23 -4z m3980 0 c-10 -2 -26 -2 -35 0 -10 3 -2 5 17 5 19 0 27 -2 18 -5z m655 0 c-13 -2 -35 -2 -50 0 -16 2 -5 4 22 4 28 0 40 -2 28 -4z m145 0 c-10 -2 -28 -2 -40 0 -13 2 -5 4 17 4 22 1 32 -1 23 -4z m180 0 c-10 -2 -28 -2 -40 0 -13 2 -5 4 17 4 22 1 32 -1 23 -4z"></path><path id="psTlmPuSO" d="M4760 5319 c-28 -11 -70 -48 -70 -61 0 -5 5 -6 12 -2 7 4 8 3 4 -5 -4 -6 -11 -9 -16 -6 -13 8 -23 -40 -17 -80 3 -19 35 -112 70 -207 36 -95 88 -236 117 -313 245 -669 271 -735 281 -729 5 3 6 -2 3 -10 -3 -8 12 -62 34 -118 22 -57 63 -167 92 -245 29 -79 56 -140 61 -137 5 3 6 -2 3 -11 -7 -18 19 -51 58 -71 52 -27 211 -13 193 16 -3 5 0 7 7 5 20 -8 51 53 51 99 -1 24 -23 98 -53 176 -48 127 -70 173 -57 122 3 -13 1 -20 -5 -16 -5 4 -8 18 -5 32 6 32 -10 79 -30 86 -9 4 -13 13 -9 22 8 22 -4 65 -17 57 -6 -3 -7 -1 -3 5 8 14 -223 644 -234 637 -5 -3 -11 2 -14 11 -4 10 -2 13 6 8 7 -5 9 -2 6 7 -3 8 -15 42 -28 76 -12 35 -26 60 -31 57 -5 -3 -6 1 -4 8 5 11 -14 66 -97 290 -5 16 -14 25 -19 22 -5 -3 -6 1 -3 9 7 18 -60 204 -82 229 -10 10 -24 16 -31 13 -8 -2 -12 -1 -9 4 16 25 -113 40 -164 20z"></path><path id="pp22qXPgw" d="M4102 5056 c-39 -13 -455 -423 -445 -439 3 -6 1 -7 -4 -4 -12 8 -109 -89 -105 -104 1 -6 -1 -8 -6 -5 -5 3 -37 -23 -71 -58 -50 -51 -63 -71 -67 -102 -6 -44 23 -111 45 -106 7 1 10 -1 7 -6 -6 -10 307 -325 317 -317 4 3 5 2 2 -2 -10 -12 67 -82 84 -76 11 3 12 2 4 -4 -17 -12 225 -253 253 -252 18 0 18 1 -1 9 -16 7 -17 9 -3 9 9 1 23 -6 32 -14 8 -8 21 -15 28 -15 10 0 9 3 -2 10 -12 8 -12 10 3 16 9 3 26 4 37 1 21 -5 44 15 32 28 -4 5 -2 5 5 1 13 -7 56 44 73 88 6 16 8 43 4 58 -7 36 -62 100 -77 91 -5 -3 -7 -1 -4 4 7 12 -16 36 -26 28 -4 -3 -5 -2 -2 2 8 10 -37 53 -48 46 -6 -3 -7 -2 -4 4 8 13 -47 66 -57 56 -4 -5 -6 -1 -4 7 2 9 -3 14 -12 12 -8 -2 -12 0 -7 4 10 10 -63 85 -76 77 -6 -3 -7 -1 -4 4 7 12 -16 36 -26 28 -4 -3 -5 -2 -2 2 7 9 -26 43 -42 43 -8 0 -12 4 -9 8 7 12 -49 64 -58 55 -4 -5 -6 -1 -4 7 2 9 -3 14 -12 12 -8 -2 -12 0 -8 4 11 10 -12 35 -25 27 -5 -3 -7 -1 -3 5 3 6 1 14 -5 17 -7 5 -1 17 16 35 15 16 27 31 26 34 -1 3 1 5 3 4 10 -6 75 66 69 76 -3 6 -3 8 2 4 11 -11 36 12 28 25 -3 5 -1 7 4 4 13 -8 65 42 57 54 -3 5 1 6 8 4 8 -3 29 10 48 30 19 19 28 35 21 35 -7 0 -9 5 -6 11 4 6 13 8 20 5 7 -2 30 13 51 35 27 28 33 38 19 34 -16 -5 -17 -5 -5 3 8 6 17 9 20 7 7 -5 75 62 75 73 0 4 3 6 7 5 4 -2 16 9 27 24 15 18 21 40 21 75 0 46 -4 53 -52 104 -39 42 -56 53 -72 49 -15 -5 -17 -4 -7 3 11 8 9 11 -9 17 -14 4 -25 3 -30 -5 -5 -7 -9 -8 -11 -2 -3 6 -15 6 -37 -2z"></path><path id="p156cbvOGP" d="M6070 5062 c0 -6 -9 -8 -19 -5 -24 6 -99 -60 -118 -104 -16 -39 -17 -87 -2 -116 6 -12 122 -133 257 -269 l247 -248 -53 -53 c-29 -29 -49 -57 -45 -62 5 -4 3 -5 -3 -2 -16 9 -278 -259 -268 -274 4 -7 3 -10 -4 -5 -13 8 -117 -98 -133 -136 -12 -30 -4 -102 11 -93 6 3 7 0 5 -7 -3 -7 15 -33 40 -58 25 -24 45 -40 45 -35 0 6 4 5 8 -2 4 -6 21 -14 37 -18 20 -4 26 -3 17 3 -11 7 -11 10 2 15 8 3 18 2 21 -3 4 -6 12 -10 18 -10 7 0 6 4 -3 11 -12 9 -11 10 7 6 23 -5 69 34 56 47 -5 4 -1 6 7 4 8 -2 14 3 15 10 0 6 5 12 10 12 16 1 75 62 69 72 -3 5 -1 7 3 6 15 -5 85 61 78 72 -4 6 -2 9 3 8 16 -5 159 139 154 155 -1 5 1 6 6 3 12 -7 164 148 155 159 -4 4 -3 5 3 2 14 -8 54 28 54 48 0 8 6 14 13 12 6 -1 11 4 9 11 -1 8 2 11 7 8 17 -11 61 54 61 90 0 46 -18 82 -32 63 -6 -10 -7 -7 -3 10 6 19 4 23 -8 18 -18 -7 -37 11 -31 28 5 11 -40 49 -58 50 -5 0 -7 3 -5 7 4 11 -45 58 -55 52 -5 -3 -7 0 -6 8 2 7 -3 12 -10 10 -6 -1 -11 4 -10 10 2 7 -3 12 -10 10 -8 -1 -11 2 -8 6 7 12 -28 44 -38 35 -4 -5 -6 -1 -4 7 2 8 -3 14 -10 12 -8 -1 -11 1 -8 6 7 12 -38 54 -49 45 -4 -5 -5 -3 -2 3 6 11 -9 31 -25 33 -5 1 -7 3 -5 5 5 9 -47 55 -56 49 -6 -3 -7 -2 -4 4 7 11 -66 86 -76 78 -4 -3 -5 -2 -2 2 8 10 -16 33 -28 26 -5 -3 -7 -2 -4 4 8 13 -37 56 -48 46 -4 -5 -5 -3 -2 3 8 14 -17 37 -28 26 -5 -4 -5 -2 -2 4 8 14 -36 57 -48 47 -4 -5 -5 -3 -1 4 8 14 -15 28 -61 38 -20 4 -33 3 -33 -3z"></path></g></g></svg>