<?xml version="1.0" encoding="utf-8"?>
<!DOCTYPE svg PUBLIC "-//W3C//DTD SVG 1.0//EN" "http://www.w3.org/TR/2001/REC-SVG-20010904/DTD/svg10.dtd">
<svg version="1.0" xmlns="http://www.w3.org/2000/svg" width="1024px" height="1024px" viewBox="0 0 1024 1024" preserveAspectRatio="xMidYMid meet">
 <g fill="#0b0c0c">
  <path d="M0 512 l0 -512 512 0 512 0 0 512 0 512 -512 0 -512 0 0 -512z m650.50 286.05 c5.25 -0.35 6.05 -0.55 8.90 -2.05 3.50 -1.85 5.05 -3.45 6.95 -7.20 3.20 -6.20 0.05 -13.90 -7.20 -17.60 l-2.90 -1.45 -24.05 -0.15 -24 -0.15 -3.20 -11.85 c-1.75 -6.50 -4.05 -15 -5.10 -18.85 -6.25 -22.75 -8.90 -33.05 -8.90 -34.65 l0 -1.60 87.40 0 c50.75 -0.05 89.35 -0.25 92.10 -0.50 14.80 -1.45 23.45 -4.90 33.30 -13.25 7.25 -6.10 13.65 -15.60 15.95 -23.50 0.45 -1.65 1.05 -3.35 1.25 -3.80 1.70 -3.35 1.75 -7.80 1.75 -202.20 0 -182.50 -0.05 -191.20 -0.90 -195.50 -1.75 -8.75 -5.95 -16.90 -12.20 -23.70 -7.80 -8.55 -16.35 -13.55 -28 -16.40 -3.15 -0.80 -21.65 -0.85 -259.40 -1 -152.75 -0.10 -260.85 0 -268 0.30 -10.55 0.40 -12.50 0.60 -16 1.70 -6.30 1.95 -8.80 3.10 -13.75 6.15 -11.60 7.20 -20.25 19.60 -23.10 33.05 -0.45 2.25 -0.60 45.50 -0.65 195.40 0 210.80 -0.20 196.90 3 206.25 2.05 6.10 3.20 8.30 6.75 13.25 6.40 8.90 15.85 16.10 26.25 20 8.90 3.35 8.25 3.35 106.65 3.55 l88.60 0.20 0 1.80 c0 0.95 -0.90 5.30 -1.95 9.60 -1.10 4.30 -2.65 10.80 -3.50 14.35 -0.85 3.60 -3.10 13.05 -5 21 -1.90 8 -3.70 15.80 -4.05 17.35 l-0.55 2.85 -24.85 0.15 -24.85 0.15 -2.60 1.20 c-3.05 1.35 -6.75 5.10 -8.15 8.20 -3.35 7.35 1.95 15.95 11.40 18.40 3.15 0.80 11.75 0.85 140.10 0.85 75.20 0 139.35 -0.15 142.50 -0.35z"/>
  <path d="M446.50 767.70 c0 -1.05 1.25 -6.95 2.75 -13.15 1.50 -6.20 4.20 -17.35 6 -24.80 1.75 -7.40 3.45 -14.30 3.70 -15.25 0.25 -0.95 0.75 -2.85 1.10 -4.25 0.30 -1.35 0.90 -3.70 1.30 -5.10 l0.70 -2.65 49.65 0 49.65 0 1.30 4.65 c0.75 2.50 2 7.10 2.80 10.10 0.80 3.05 3.05 11.45 5 18.75 9.15 34.40 8.25 30.65 7.85 32.25 l-0.30 1.25 -65.75 0 -65.75 0 0 -1.80z"/>
  <path d="M247.50 671.20 c-7.75 -2.05 -13.70 -7.65 -16.05 -15.25 -0.85 -2.70 -0.95 -4.70 -0.95 -17.25 l0 -14.20 281.15 0.10 281.10 0.15 0.15 14.35 c0.10 13.45 0.05 14.60 -0.95 17.50 -2.15 6.40 -6.90 11.40 -13.35 14 l-2.85 1.15 -262.75 0.10 c-227.90 0.05 -263.10 0 -265.50 -0.65z"/>
  <path d="M233.90 594.15 l-3.40 -0.20 0 -161.40 0 -161.40 1.05 -3.15 c2.40 -7.35 7.35 -12.10 14.45 -13.80 2.25 -0.55 49.95 -0.65 265.25 -0.70 285.30 0 266.20 -0.20 271.35 2.75 2.70 1.50 6.50 5.55 7.95 8.35 2.60 5.10 2.45 -4.95 2.45 167.95 0 88.20 -0.15 160.70 -0.30 161.15 -0.30 0.70 -25.85 0.80 -277.90 0.70 -152.65 -0.05 -279.05 -0.15 -280.90 -0.25z m257.40 -65.60 c3.70 -1.80 6.55 -5.75 8.65 -11.85 0.55 -1.60 2.15 -6.20 3.55 -10.20 1.45 -4 2.75 -7.80 3 -8.50 0.20 -0.70 1.20 -3.50 2.25 -6.25 2.05 -5.60 5.10 -14.05 10.50 -29.25 2 -5.65 5.70 -16 8.25 -23 5.85 -16.25 9.90 -27.55 17.40 -48.50 3.30 -9.20 7.50 -20.90 9.35 -26 6.40 -17.65 7.75 -21.65 7.75 -22.95 0 -2.05 -2.65 -5.80 -5.10 -7.20 -6.65 -3.80 -14.35 -2.80 -19.80 2.60 -2.80 2.70 -4.55 6.25 -8.05 16.05 -2.70 7.40 -3.90 10.75 -9.80 27 -1.85 5.10 -4.25 11.60 -5.25 14.50 -5.55 15.65 -7.45 20.95 -8.15 22.75 -0.45 1.10 -3.65 9.90 -7.10 19.50 -3.45 9.65 -6.75 18.70 -7.30 20.15 -1 2.70 -2.30 6.30 -3.90 10.75 -0.50 1.40 -2.30 6.30 -3.95 10.85 -1.70 4.55 -4.30 11.85 -5.85 16.25 -1.55 4.40 -3.80 10.75 -5 14.05 -1.25 3.35 -2.60 7.40 -3.05 9.05 -0.75 2.80 -0.75 3.10 0 4.75 1.15 2.40 3.80 4.85 6.10 5.65 1.20 0.45 4.15 0.70 7.75 0.75 4.70 0 6.15 -0.20 7.75 -0.95z m-75.70 -25.40 c2.20 -1.50 13.55 -13.05 14.40 -14.65 0.55 -1.05 -0.90 -2.60 -25.85 -27.55 l-26.40 -26.45 -0.15 -2.40 -0.15 -2.35 27.05 -27 27 -27 -7.90 -7.90 c-8.25 -8.30 -9.95 -9.60 -11.75 -9.10 -1.50 0.45 -68.60 67.50 -70.10 70.10 -1.55 2.55 -1.55 4.05 -0.20 6.80 1.25 2.50 65.75 67.35 68.15 68.60 1.85 0.90 3.40 0.60 5.90 -1.10z m200.65 0.20 c1.55 -1.05 34.05 -33.05 54.30 -53.45 11.15 -11.25 13.95 -14.80 13.95 -17.70 0 -1.55 -2.05 -4.35 -6.65 -9.20 -11.20 -11.75 -62.80 -63.20 -64 -63.85 -0.75 -0.35 -1.80 -0.60 -2.25 -0.45 -0.45 0.15 -4.65 4.10 -9.35 8.80 l-8.50 8.50 13.75 13.90 c43.15 43.50 39.75 39.90 39.90 42.20 l0.15 2.05 -26.50 26.60 c-14.60 14.60 -26.55 26.85 -26.55 27.25 0 1.15 15.60 16.35 17 16.65 1.65 0.30 2.95 -0.05 4.75 -1.30z"/>
 </g>
 <g fill="#0bc163">
  <path d="M366.40 799.05 c-5.75 -1.50 -10.35 -5.45 -11.90 -10.30 -0.95 -2.85 -0.70 -8.35 0.45 -11 1.40 -3.15 5.10 -6.95 8.20 -8.30 l2.60 -1.20 24.85 -0.15 24.85 -0.15 0.55 -2.85 c0.35 -1.55 2.15 -9.35 4.05 -17.35 1.90 -7.95 4.15 -17.40 5 -21 0.85 -3.55 2.40 -10.05 3.50 -14.35 1.05 -4.30 1.95 -8 1.95 -8.10 0 -0.15 -39.90 -0.40 -88.60 -0.50 -48.75 -0.10 -90.20 -0.35 -92.15 -0.45 -15.80 -1.15 -31.20 -9.85 -40.75 -23.10 -3.55 -4.95 -4.70 -7.15 -6.75 -13.25 -3.20 -9.35 -3 4.70 -3 -207.75 0.05 -151.10 0.20 -194.65 0.65 -196.90 4.60 -21.75 23.40 -38.65 45.35 -40.80 6.25 -0.60 531.10 -0.65 534.15 -0.05 1.30 0.25 3.05 0.55 3.85 0.70 5.50 0.75 15.45 5.40 20.80 9.70 11.40 9.05 18.65 21.45 19.90 34.10 0.15 1.80 0.30 89.30 0.30 194.50 0 194.65 -0.05 199.10 -1.75 202.45 -0.20 0.45 -0.80 2.15 -1.25 3.80 -2.30 7.90 -8.70 17.40 -15.95 23.50 -9.85 8.35 -18.50 11.80 -33.30 13.25 -2.75 0.25 -41.35 0.45 -92.15 0.50 -83 0 -87.40 0.05 -87.15 0.90 0.15 0.45 1.20 4.35 2.30 8.60 2.95 11.15 4.25 15.85 6.40 23.75 1.05 3.85 3.35 12.35 5.10 18.85 l3.20 11.85 24 0.15 24.05 0.15 2.90 1.45 c5.70 2.90 8.55 7.55 8.55 14.05 0.05 3.40 -0.15 4.40 -1.30 6.55 -0.75 1.40 -1.90 3.25 -2.60 4.05 -1.75 2.10 -6.55 4.50 -10.10 5.10 -1.85 0.30 -55.95 0.45 -144.20 0.45 -132.65 0 -141.45 -0.05 -144.60 -0.85z m210.15 -31.65 c0.05 -0.35 0 -0.85 -0.05 -1.15 -0.35 -1.45 -4.45 -17.15 -7.55 -28.75 -1.95 -7.30 -4.20 -15.70 -5 -18.75 -0.80 -3 -2.05 -7.60 -2.80 -10.10 l-1.30 -4.65 -48.15 0 -48.15 0 -0.70 2.65 c-0.40 1.40 -1 3.75 -1.30 5.10 -0.35 1.40 -0.85 3.30 -1.10 4.25 -0.25 0.95 -1.70 6.80 -3.20 13 -1.45 6.20 -4.10 17 -5.80 24 -1.70 7 -3.20 13.25 -3.30 13.90 l-0.25 1.10 64.30 0 c51.05 0 64.30 -0.15 64.35 -0.60z m200.55 -98.30 c6.45 -2.60 11.20 -7.60 13.35 -14 1 -2.90 1.05 -4.05 0.95 -16 l-0.15 -12.85 -279.60 -0.15 -279.65 -0.10 0 12.70 c0 11.05 0.10 13.10 0.95 15.75 2.35 7.60 8.30 13.20 16.05 15.25 2.40 0.65 37.40 0.70 264 0.65 l261.25 -0.10 2.85 -1.15z m14.10 -76.90 c0.15 -0.45 0.30 -72.25 0.30 -159.65 0 -171.30 0.15 -161.35 -2.45 -166.45 -1.45 -2.80 -5.25 -6.85 -7.95 -8.35 -5.15 -2.95 13.85 -2.75 -269.85 -2.75 -214.05 0.05 -261.50 0.15 -263.75 0.70 -7.10 1.70 -12.05 6.45 -14.45 13.80 l-1.05 3.15 0 159.90 0 159.90 3.40 0.15 c1.85 0.10 127.60 0.25 279.45 0.30 249.05 0.05 276.10 0 276.35 -0.70z"/>
  <path d="M474.25 530.25 c-2.45 -0.85 -5.85 -4.45 -6.60 -7 -0.70 -2.25 0.15 -5.90 3.50 -15.25 1.25 -3.45 3.55 -9.85 5.10 -14.25 1.55 -4.40 4.15 -11.70 5.85 -16.25 1.65 -4.55 3.45 -9.45 3.95 -10.85 1.60 -4.45 2.90 -8.05 3.90 -10.75 0.55 -1.45 3.85 -10.50 7.30 -20.15 3.45 -9.60 6.65 -18.40 7.10 -19.50 0.70 -1.80 2.60 -7.10 8.15 -22.75 1 -2.90 3.40 -9.40 5.25 -14.50 5.90 -16.25 7.10 -19.60 9.80 -27 3.50 -9.80 5.25 -13.35 8.05 -16.05 3.30 -3.30 6.30 -4.60 11.10 -4.85 10.15 -0.55 17 3.95 16.90 11.05 0 2.65 -0.30 3.50 -7.85 24.35 -1.85 5.10 -6.05 16.80 -9.35 26 -7.50 20.95 -11.55 32.25 -17.40 48.50 -2.55 7 -6.25 17.35 -8.25 23 -5.40 15.20 -8.45 23.65 -10.50 29.25 -1.05 2.75 -2.05 5.55 -2.25 6.25 -0.25 0.70 -1.55 4.50 -3 8.50 -1.40 4 -3 8.60 -3.55 10.20 -2.10 6.10 -4.95 10.05 -8.65 11.85 -1.70 0.80 -3.05 0.95 -9.25 0.95 -4.95 -0.05 -7.95 -0.25 -9.30 -0.75z"/>
  <path d="M408.20 505.70 c-2.50 -1.25 -66.90 -66.05 -68.20 -68.70 -1.55 -3 -1.55 -6.75 0 -9.35 1.35 -2.25 67.65 -68.90 69.60 -69.95 1.70 -0.90 4.55 -0.90 6.30 0 0.75 0.40 5.15 4.55 9.75 9.25 6.75 6.80 8.35 8.65 7.95 9.30 -0.25 0.45 -12.65 13.05 -27.50 27.95 -14.90 14.90 -27.10 27.40 -27.10 27.80 0 0.40 11.70 12.45 26.05 26.75 14.30 14.30 26.35 26.60 26.75 27.35 0.65 1.20 0.65 1.60 -0.05 3.20 -1 2.45 -13.95 15.40 -16.35 16.40 -2.35 1 -5.20 1 -7.20 0z"/>
  <path d="M610.05 506.15 c-1.25 -0.25 -13.75 -12.15 -16.10 -15.35 -0.80 -1.05 -1.45 -2.50 -1.45 -3.20 0 -1.05 5.45 -6.75 26.80 -28.15 14.75 -14.75 26.75 -27.10 26.65 -27.35 -0.10 -0.30 -12.35 -12.85 -27.20 -27.90 -20.30 -20.60 -26.95 -27.65 -26.85 -28.40 0.05 -0.60 4.10 -5 9 -9.90 l8.90 -8.90 2.30 0 c1.55 0 2.80 0.35 3.95 1.15 1.70 1.20 55.25 54.80 63.90 64.05 5.60 5.95 6.80 8.20 6.05 11.60 -0.30 1.25 -1.10 3.30 -1.80 4.50 -2.25 3.80 -64.75 65.95 -67.80 67.35 -1.75 0.80 -3.80 0.95 -6.35 0.50z"/>
 </g>
</svg>